<mxfile host="65bd71144e">
    <diagram name="中断与主循环交互" id="sequence-diagram-001">
        <mxGraphModel dx="1168" dy="1505" grid="1" gridSize="10" guides="1" tooltips="1" connect="1" arrows="1" fold="1" page="1" pageScale="1" pageWidth="1200" pageHeight="900" background="#ffffff" math="0" shadow="0">
            <root>
                <mxCell id="0"/>
                <mxCell id="1" parent="0"/>
                <mxCell id="2" value="Timer0中断与主循环交互序列图" style="text;html=1;strokeColor=none;fillColor=none;align=center;verticalAlign=middle;whiteSpace=wrap;fontSize=20;fontStyle=1;fontColor=#000000;" parent="1" vertex="1">
                    <mxGeometry x="350" y="20" width="500" height="40" as="geometry"/>
                </mxCell>
                <mxCell id="3" value="Timer0中断&lt;br&gt;(1ms周期)" style="rounded=1;whiteSpace=wrap;html=1;fillColor=#f8cecc;strokeColor=#b85450;strokeWidth=2;fontSize=14;fontStyle=1;fontColor=#000000;" parent="1" vertex="1">
                    <mxGeometry x="100" y="80" width="140" height="60" as="geometry"/>
                </mxCell>
                <mxCell id="4" value="主循环&lt;br&gt;while(1)" style="rounded=1;whiteSpace=wrap;html=1;fillColor=#d5e8d4;strokeColor=#82b366;strokeWidth=2;fontSize=14;fontStyle=1;fontColor=#000000;" parent="1" vertex="1">
                    <mxGeometry x="500" y="80" width="140" height="60" as="geometry"/>
                </mxCell>
                <mxCell id="5" value="" style="endArrow=none;dashed=1;html=1;dashPattern=1 3;strokeWidth=2;strokeColor=#b85450;" parent="1" edge="1">
                    <mxGeometry width="50" height="50" relative="1" as="geometry">
                        <mxPoint x="170" y="600" as="sourcePoint"/>
                        <mxPoint x="170" y="140" as="targetPoint"/>
                    </mxGeometry>
                </mxCell>
                <mxCell id="6" value="" style="endArrow=none;dashed=1;html=1;dashPattern=1 3;strokeWidth=2;strokeColor=#82b366;" parent="1" edge="1">
                    <mxGeometry width="50" height="50" relative="1" as="geometry">
                        <mxPoint x="570" y="600" as="sourcePoint"/>
                        <mxPoint x="570" y="140" as="targetPoint"/>
                    </mxGeometry>
                </mxCell>
                <mxCell id="7" value="" style="rounded=0;whiteSpace=wrap;html=1;fillColor=#f8cecc;strokeColor=#b85450;strokeWidth=2;" parent="1" vertex="1">
                    <mxGeometry x="160" y="180" width="20" height="200" as="geometry"/>
                </mxCell>
                <mxCell id="8" value="" style="rounded=0;whiteSpace=wrap;html=1;fillColor=#d5e8d4;strokeColor=#82b366;strokeWidth=2;" parent="1" vertex="1">
                    <mxGeometry x="560" y="160" width="20" height="300" as="geometry"/>
                </mxCell>
                <mxCell id="9" value="1ms到" style="text;html=1;strokeColor=none;fillColor=none;align=center;verticalAlign=middle;whiteSpace=wrap;fontSize=13;fontStyle=1;fontColor=#000000;" parent="1" vertex="1">
                    <mxGeometry x="80" y="190" width="80" height="20" as="geometry"/>
                </mxCell>
                <mxCell id="10" value="" style="edgeStyle=orthogonalEdgeStyle;rounded=0;orthogonalLoop=1;jettySize=auto;html=1;strokeWidth=2;strokeColor=#b85450;endArrow=block;endFill=1;" parent="1" edge="1">
                    <mxGeometry relative="1" as="geometry">
                        <mxPoint x="180" y="210" as="sourcePoint"/>
                        <mxPoint x="560" y="210" as="targetPoint"/>
                    </mxGeometry>
                </mxCell>
                <mxCell id="11" value="(中断主循环)" style="text;html=1;strokeColor=none;fillColor=none;align=center;verticalAlign=middle;whiteSpace=wrap;fontSize=12;fontStyle=1;fontColor=#000000;" parent="1" vertex="1">
                    <mxGeometry x="310" y="190" width="120" height="20" as="geometry"/>
                </mxCell>
                <mxCell id="12" value="Task_Marks_Handler" style="rounded=1;whiteSpace=wrap;html=1;fillColor=#fff2cc;strokeColor=#d6b656;strokeWidth=2;fontSize=12;fontStyle=1;fontColor=#000000;align=center;" parent="1" vertex="1">
                    <mxGeometry x="80" y="240" width="160" height="30" as="geometry"/>
                </mxCell>
                <mxCell id="13" value="├─ Task1.TIMCount--&lt;br&gt;│&amp;nbsp;&amp;nbsp; = 0 → Run=1&lt;br&gt;├─ Task2.TIMCount--&lt;br&gt;│&amp;nbsp;&amp;nbsp; = 9&lt;br&gt;├─ Task3.TIMCount--&lt;br&gt;│&amp;nbsp;&amp;nbsp; = 9&lt;br&gt;└─ Task5.TIMCount--&lt;br&gt;&amp;nbsp;&amp;nbsp;&amp;nbsp; = 499" style="text;html=1;strokeColor=none;fillColor=none;align=left;verticalAlign=top;whiteSpace=wrap;fontSize=11;fontStyle=1;fontColor=#000000;fontFamily=Courier New;" parent="1" vertex="1">
                    <mxGeometry x="40" y="280" width="180" height="120" as="geometry"/>
                </mxCell>
                <mxCell id="14" value="" style="edgeStyle=orthogonalEdgeStyle;rounded=0;orthogonalLoop=1;jettySize=auto;html=1;strokeWidth=2;strokeColor=#b85450;endArrow=open;endFill=0;dashed=1;" parent="1" edge="1">
                    <mxGeometry relative="1" as="geometry">
                        <mxPoint x="560" y="380" as="sourcePoint"/>
                        <mxPoint x="180" y="380" as="targetPoint"/>
                    </mxGeometry>
                </mxCell>
                <mxCell id="15" value="返回主循环 (50μs)" style="text;html=1;strokeColor=none;fillColor=none;align=center;verticalAlign=middle;whiteSpace=wrap;fontSize=12;fontStyle=1;fontColor=#000000;" parent="1" vertex="1">
                    <mxGeometry x="280" y="360" width="140" height="20" as="geometry"/>
                </mxCell>
                <mxCell id="16" value="Task_Pro_Handler" style="rounded=1;whiteSpace=wrap;html=1;fillColor=#dae8fc;strokeColor=#6c8ebf;strokeWidth=2;fontSize=12;fontStyle=1;fontColor=#000000;align=center;" parent="1" vertex="1">
                    <mxGeometry x="660" y="410" width="140" height="30" as="geometry"/>
                </mxCell>
                <mxCell id="17" value="├─ Task1.Run==1&lt;br&gt;│&amp;nbsp;&amp;nbsp; 执行 Sample_Display()&lt;br&gt;│&amp;nbsp;&amp;nbsp; (约200μs)&lt;br&gt;├─ Task2.Run==0 (跳过)&lt;br&gt;├─ Task3.Run==0 (跳过)&lt;br&gt;└─ Task5.Run==0 (跳过)" style="text;html=1;strokeColor=none;fillColor=none;align=left;verticalAlign=top;whiteSpace=wrap;fontSize=11;fontStyle=1;fontColor=#000000;fontFamily=Courier New;" parent="1" vertex="1">
                    <mxGeometry x="640" y="450" width="220" height="100" as="geometry"/>
                </mxCell>
                <mxCell id="18" value="性能指标&lt;br&gt;• 中断周期: 1ms&lt;br&gt;• 中断执行: ~50μs (5%)&lt;br&gt;• Task1执行: ~200μs&lt;br&gt;• CPU占用: 5-15%" style="rounded=1;whiteSpace=wrap;html=1;fillColor=#ffe6cc;strokeColor=#000000;strokeWidth=2;fontSize=12;fontStyle=1;fontColor=#000000;align=left;verticalAlign=top;" parent="1" vertex="1">
                    <mxGeometry x="40" y="620" width="240" height="120" as="geometry"/>
                </mxCell>
                <mxCell id="19" value="关键设计点&lt;br&gt;✓ 中断仅做标记&lt;br&gt;✓ 任务在主循环执行&lt;br&gt;✓ 避免中断嵌套&lt;br&gt;✓ 易于调试扩展" style="rounded=1;whiteSpace=wrap;html=1;fillColor=#d5e8d4;strokeColor=#000000;strokeWidth=2;fontSize=12;fontStyle=1;fontColor=#000000;align=left;verticalAlign=top;" parent="1" vertex="1">
                    <mxGeometry x="320" y="620" width="220" height="120" as="geometry"/>
                </mxCell>
            </root>
        </mxGraphModel>
    </diagram>
</mxfile>